<svg xmlns="http://www.w3.org/2000/svg" viewBox="0 0 32 32" width="32" height="32">
  <path d="M26.334 0c-.18.39-.39.78-.6 1.16-.13.24-.26.47-.33.75.51-.54 1.03-1.08 1.54-1.62.04.03.08.06.12.1l-.83 1.33c.01.01.03.02.04.04l2.31-1.5c.01.01.03.03.04.05-.21.19-.42.41-.64.59-.6.52-1.2 1.05-1.84 1.52-.9.66-1.8 1.33-2.77 1.89-1.75 1.03-3.58 1.92-5.25 3.09-1.4.97-2.82 1.92-4.18 2.95-.88.67-1.72 1.41-2.47 2.22-.96 1.03-1.86 2.12-2.69 3.25-1.37 1.84-2.71 3.7-3.98 5.61-.91 1.36-1.7 2.8-2.54 4.2-.1.18-.2.35-.31.54 0 0-.02.02-.03.02-.58.01-.65-.06-.68-.79-.06-1.18.07-2.35.33-3.5.08-.38.19-.75.29-1.15.12.83.23 1.62.34 2.42l.1-.01c-.14-1.1.01-2.16.5-3.22-.04.76-.07 1.46-.11 2.15l.09.01c.13-.75.25-1.5.39-2.25.22-1.13.39-2.28.95-3.29.39-.69.86-1.34 1.37-1.96.65-.77 1.36-1.49 2.08-2.27.13.95-.01 1.88.47 2.71-.04-.51-.11-1.02-.11-1.52 0-1.08.18-2.13.69-3.08.28-.52.66-.99 1.04-1.45.41-.49.86-.95 1.33-1.39.98-.92 2.02-1.77 3.17-2.47.05-.03.11-.05.21-.09-.26.86-.57 1.67-.56 2.55.18-.92.47-1.81 1-2.59.19-.28.48-.51.77-.68.83-.48 1.67-.92 2.51-1.38.03-.01.07 0 .07 0-.27.91-.54 1.84-.81 2.76l.11.03c.19-.38.37-.79.59-1.16.5-.82.98-1.67 1.56-2.43.23-.31.7-.46 1.09-.62.83-.33 1.66-.66 2.51-.9.89-.24 1.8-.38 2.7-.6.14-.02.27-.02.42-.02m-1.06 2.05.02-.11c-.02.03-.03.05-.02.11M.104 31.91a.2.2 0 0 0-.05.07c0 .02-.03.02-.05.02a.1.1 0 0 1 .04-.11c.04.01.05.02.06.02"/>
  <path d="M27.434 3.75c.33-.1.67-.2.99-.32.23-.08.44-.19.68-.3v1.21l-2.7 1.11v.04l2.43-.57c.06.34-.29.89-.75 1.15-.97.56-2.01.91-3.13 1.06-.37.04-.74.1-1.12.18.33 0 .65.01.97 0 .33-.01.68-.02 1.01-.06.33-.05.66-.12.98-.19s.64-.16 1.03-.26c-.24 1.1-.8 1.98-1.51 2.79-.75.84-1.81 1.04-2.79 1.44l1.82-.33.02.07-2.19 1 1.31-.16c-.28.5-.7.78-1.12 1.07-1.61 1.13-3.43 1.73-5.31 2.19-.89.22-1.79.4-2.71.38-.39-.01-.78.01-1.16 0-.72-.03-1.42.06-2 .25.44 0 .98.02 1.52-.01.62-.03 1.21.17 1.81.23.71.07 1.43.03 2.15.03.27 0 .53-.03.8-.06.46-.06.92-.13 1.39-.19.05-.01.11 0 .19 0-.65 1.4-1.57 2.52-2.97 3.17-.71.33-1.47.58-2.22.82-.77.26-1.55.48-2.34.68-.37.09-.76.1-1.15.14-.26.03-.52.06-.78.13.17 0 .34-.01.51 0 .5.02.99.05 1.49.06.77 0 1.48-.26 2.2-.5.13-.04.27-.08.44-.12.04.02.05.03.06.03-.99.6-1.97 1.21-2.97 1.79-1.08.63-2.21 1.19-3.41 1.54-.75.22-1.52.34-2.27.51-.45.1-.89.22-1.33.33l.03.11c.14-.02.29-.05.44-.06.64-.07 1.28-.19 1.92-.18.91.02 1.73-.26 2.54-.61.46-.19.91-.42 1.4-.59-.21.18-.4.39-.61.55-1.17.86-2.44 1.51-3.84 1.91-.75.23-1.53.42-2.24.75-.53.24-1.04.34-1.63.26.23-.42.44-.85.69-1.26.82-1.3 1.63-2.6 2.48-3.86.67-.98 1.38-1.93 2.11-2.85.7-.88 1.45-1.73 2.19-2.57.62-.7 1.23-1.4 1.91-2.03 1.12-1.03 2.28-2.01 3.42-3 1.42-1.22 3.05-2.16 4.59-3.21 1.29-.89 2.55-1.82 3.81-2.75.96-.72 1.91-1.47 2.85-2.23.35-.29.67-.62 1-.93.27-.26.27-.27.47.04.08.11.16.23.21.36.16.42.1.63-.27.87-.45.29-.91.59-1.4.91-.06.04-.1.05-.13.06.01.02.01.04.02.05.06-.02.11-.04.17-.07"/>
  <path d="M24.654 4.23c-.99.69-1.97 1.37-2.96 2.03-1.12.76-2.27 1.47-3.37 2.25-.83.58-1.61 1.23-2.41 1.85-1.55 1.2-2.94 2.57-4.29 3.98-.89.94-1.74 1.91-2.54 2.92-1.16 1.47-2.29 2.97-3.37 4.5-.73 1.04-1.36 2.16-2.01 3.25-.35.58-.66 1.18-.97 1.77-.12.24-.2.5-.31.78l-.77-.31c.52-.89 1.01-1.77 1.52-2.62.74-1.22 1.47-2.45 2.26-3.64.95-1.42 1.95-2.8 2.97-4.17.6-.81 1.27-1.57 1.94-2.33.76-.85 1.5-1.71 2.32-2.49.8-.76 1.67-1.47 2.56-2.13 1.28-.96 2.58-1.89 3.9-2.77 1.1-.74 2.24-1.39 3.37-2.07 1.46-.89 2.92-1.77 4.38-2.66.1-.06.19-.14.28-.2.02.03.05.06.08.09-.86.66-1.72 1.32-2.58 1.97M.054 31.88c.16-.64.17-1.27.01-1.91-.04-.18.12-.41.22-.6.17-.32.37-.62.56-.92.32.12.65.24.97.37.17.06.29.14.2.39-.14.42-.22.87-.34 1.31-.02.08-.08.19-.15.21-.61.22-1.01.68-1.41 1.17-.02.01-.03 0-.06-.02m.72-1.56c.12-.02.25-.02.36-.07.03-.02.03-.22-.02-.26-.07-.05-.26-.09-.29-.04-.07.08-.06.22-.05.37m1.35-2.51c.15.05.28.1.45.17-.09.21-.17.43-.27.67-.48-.2-.93-.38-1.4-.57.09-.22.18-.44.28-.66.33.14.62.26.94.39m25.28-25.75c-.04.04-.09.06-.15.09 0-.02-.01-.04-.02-.05.06-.02.11-.04.17-.04m-12.16 17.82c.04-.03.1-.06.15-.08l.02.06c-.03.01-.06.02-.11.04-.03.01-.04 0-.06-.02M27.144.3c-.02-.01-.03-.04-.03-.07 0-.01.02-.01.03-.02.01.02.02.05 0 .09m.36 1.64q.03-.03.09-.03a.14.14 0 0 1-.09.03m-11.84 22.34c-.49.14-.96.23-1.43.4-.82.3-1.63.7-2.42 1.24-.67.47-1.33.94-1.97 1.47-.76.6-1.5 1.29-2.26 1.9-.93.76-1.9 1.38-2.9 1.76-.52.19-1.04.39-1.56.55-.27.08-.54.1-.81.13-.33.05-.67.08-1 .13-.13.02-.21-.05-.25-.29.07-.44.29-.29.44-.32.45-.1.92-.1 1.37-.21.94-.24 1.88-.61 2.79-1.15.9-.54 1.78-1.19 2.63-1.95 1.2-1.06 2.41-2.14 3.69-2.83.71-.39 1.44-.7 2.17-.99.47-.2.95-.31 1.42-.44.08-.02.17 0 .25.06.05.04.08.18.12.28-.06.07-.11.15-.16.21-.03.03-.07.03-.12.05m5.28 3.6L19.554 32h-3.55l5.95-16h4.11l5.94 16h-3.74l-1.39-4.12zm5.23-2.35-2.17-6.47h-.16l-2.17 6.47z"/>
</svg>
